<svg id="Capa_1" data-name="Capa 1" xmlns="http://www.w3.org/2000/svg" viewBox="0 0 196 56"><defs><style>.cls-1{fill:#6132ae;}.cls-2{fill:#f2eff8;}</style></defs><title>logokake</title><path class="cls-1" d="M85,42H75.41L65,25.14l-3.57,2.57V42H53V2h8.42V20.32L63.09,18c.56-.79,1.12-1.57,1.67-2.36L75.52,2h9.37L71,19.7Z"/><path class="cls-2" d="M108,16.17c-.18-.63-.42-1.43-.71-2.4s-.58-1.95-.86-3-.53-1.87-.71-2.62c-.18.75-.43,1.68-.76,2.79s-.58,2.12-.87,3.13-.45,1.65-.59,2.06l-2.77,9.26H110.8ZM115.57,42l-2.82-9.48H98.65L95.84,42H87L100.66,2h10L124.4,42Z"/><path class="cls-2" d="M163.13,42h-9.32L143.67,25.21l-3.47,2.56V42H132V2.17h8.19V20.41l1.63-2.34,1.62-2.35L153.91,2.17H163L149.52,19.8Z"/><polygon class="cls-2" points="193 42 170.72 42 170.72 2.17 193 2.17 193 9.09 178.91 9.09 178.91 17.84 192.02 17.84 192.02 24.76 178.91 24.76 178.91 35.03 193 35.03 193 42"/><path class="cls-1" d="M22.33,23.1A2.3,2.3,0,0,1,20,20.67a2.37,2.37,0,0,1,2.35-2.44,2.42,2.42,0,0,1,2.34,2.44A2.35,2.35,0,0,1,22.33,23.1Zm0-9.74a7.42,7.42,0,0,0-7.23,7.51c0,3.35,4.69,9.44,6.45,11.67a1.18,1.18,0,0,0,.78.41,1.25,1.25,0,0,0,.68-.41c1.76-2.23,6.45-8.32,6.45-11.67A7.4,7.4,0,0,0,22.33,13.36Zm0,24.36A14.3,14.3,0,0,1,8.25,23.1c0-8,6.26-14.61,14.08-14.61S36.4,15.09,36.4,23.1A14.36,14.36,0,0,1,22.33,37.72Zm29,9.23L41.58,36.8a2.77,2.77,0,0,0-1.66-.71H38.35a21.65,21.65,0,0,0,4.3-13C42.65,11.54,33.47,2,22.33,2S2,11.54,2,23.1s9.09,21.11,20.33,21.11a19.74,19.74,0,0,0,12.51-4.46v1.72a2.39,2.39,0,0,0,.68,1.72L45.2,53.24a2.2,2.2,0,0,0,3.32,0l2.73-2.84A2.48,2.48,0,0,0,51.35,47Z"/></svg>